<svg width="20" height="20" viewBox="0 0 20 20" fill="none" xmlns="http://www.w3.org/2000/svg">
<path fill-rule="evenodd" clip-rule="evenodd" d="M10.5882 19.4118H1.17647C0.526724 19.4118 0 18.8851 0 18.2353V1.76473C0 1.11498 0.526724 0.588257 1.17647 0.588257H10.5882C11.238 0.588257 11.7647 1.11498 11.7647 1.76473V4.7059C11.7647 5.35565 11.238 5.88237 10.5882 5.88237C9.93849 5.88237 9.41177 5.35565 9.41177 4.7059V2.9412H2.35294V17.0588H9.41177V14.7059C9.41177 14.0562 9.93849 13.5294 10.5882 13.5294C11.238 13.5294 11.7647 14.0562 11.7647 14.7059V18.2353C11.7647 18.8851 11.238 19.4118 10.5882 19.4118ZM14.8066 11.1765H4.70587C4.05612 11.1765 3.5294 10.6498 3.5294 10C3.5294 9.35028 4.05612 8.82356 4.70587 8.82356H14.8066L13.2823 7.30591C12.821 6.84459 12.821 6.09664 13.2823 5.63532C13.7437 5.174 14.4916 5.174 14.9529 5.63532L18.4823 9.16473C18.7051 9.38563 18.8303 9.68633 18.8303 10C18.8303 10.3137 18.7051 10.6144 18.4823 10.8353L14.9529 14.3647C14.7309 14.5849 14.4303 14.7077 14.1176 14.7059C13.8049 14.7077 13.5044 14.5849 13.2823 14.3647C13.0596 14.1438 12.9343 13.8431 12.9343 13.5294C12.9343 13.2157 13.0596 12.915 13.2823 12.6941L14.8066 11.1765Z" fill="#E5E5E5"/>
</svg>
